<mxfile host="app.diagrams.net" modified="2022-09-14T02:59:48.760Z" agent="5.0 (Windows NT 10.0; Win64; x64) AppleWebKit/537.36 (KHTML, like Gecko) Chrome/105.0.0.0 Safari/537.36" etag="6GxPHFCZ74FzMCTGUcVJ" version="20.3.0" type="github">
  <diagram id="C5RBs43oDa-KdzZeNtuy" name="Page-1">
    <mxGraphModel dx="1696" dy="909" grid="0" gridSize="10" guides="1" tooltips="1" connect="1" arrows="1" fold="1" page="1" pageScale="1" pageWidth="827" pageHeight="1169" background="none" math="0" shadow="0">
      <root>
        <mxCell id="WIyWlLk6GJQsqaUBKTNV-0" />
        <mxCell id="WIyWlLk6GJQsqaUBKTNV-1" parent="WIyWlLk6GJQsqaUBKTNV-0" />
        <mxCell id="jqP9k7ERw2RSLgkD4hJS-28" value="" style="rounded=1;whiteSpace=wrap;html=1;dashed=1;" vertex="1" parent="WIyWlLk6GJQsqaUBKTNV-1">
          <mxGeometry x="45" y="514" width="620" height="120" as="geometry" />
        </mxCell>
        <mxCell id="jqP9k7ERw2RSLgkD4hJS-27" value="" style="rounded=1;whiteSpace=wrap;html=1;dashed=1;" vertex="1" parent="WIyWlLk6GJQsqaUBKTNV-1">
          <mxGeometry x="50" y="364" width="610" height="140" as="geometry" />
        </mxCell>
        <mxCell id="jqP9k7ERw2RSLgkD4hJS-26" value="" style="rounded=1;whiteSpace=wrap;html=1;dashed=1;" vertex="1" parent="WIyWlLk6GJQsqaUBKTNV-1">
          <mxGeometry x="50" y="220" width="610" height="109" as="geometry" />
        </mxCell>
        <mxCell id="jqP9k7ERw2RSLgkD4hJS-4" value="" style="rounded=1;whiteSpace=wrap;html=1;" vertex="1" parent="WIyWlLk6GJQsqaUBKTNV-1">
          <mxGeometry x="55" y="92" width="604" height="120" as="geometry" />
        </mxCell>
        <mxCell id="jqP9k7ERw2RSLgkD4hJS-17" value="cull" style="edgeStyle=orthogonalEdgeStyle;rounded=0;orthogonalLoop=1;jettySize=auto;html=1;" edge="1" parent="WIyWlLk6GJQsqaUBKTNV-1" source="WIyWlLk6GJQsqaUBKTNV-10" target="jqP9k7ERw2RSLgkD4hJS-16">
          <mxGeometry relative="1" as="geometry" />
        </mxCell>
        <mxCell id="WIyWlLk6GJQsqaUBKTNV-10" value="View Frustum Cull" style="rhombus;whiteSpace=wrap;html=1;shadow=0;fontFamily=Helvetica;fontSize=12;align=center;strokeWidth=1;spacing=6;spacingTop=-4;fillColor=#cdeb8b;strokeColor=#36393d;" parent="WIyWlLk6GJQsqaUBKTNV-1" vertex="1">
          <mxGeometry x="390" y="374" width="100" height="80" as="geometry" />
        </mxCell>
        <mxCell id="jqP9k7ERw2RSLgkD4hJS-19" value="" style="edgeStyle=orthogonalEdgeStyle;rounded=0;orthogonalLoop=1;jettySize=auto;html=1;" edge="1" parent="WIyWlLk6GJQsqaUBKTNV-1" source="WIyWlLk6GJQsqaUBKTNV-11" target="jqP9k7ERw2RSLgkD4hJS-18">
          <mxGeometry relative="1" as="geometry" />
        </mxCell>
        <mxCell id="WIyWlLk6GJQsqaUBKTNV-11" value="hull &lt;br&gt;shader" style="rounded=1;whiteSpace=wrap;html=1;fontSize=12;glass=0;strokeWidth=1;shadow=0;fillColor=#d5e8d4;strokeColor=#82b366;" parent="WIyWlLk6GJQsqaUBKTNV-1" vertex="1">
          <mxGeometry x="89" y="529" width="80" height="50" as="geometry" />
        </mxCell>
        <mxCell id="jqP9k7ERw2RSLgkD4hJS-0" value="topology" style="ellipse;whiteSpace=wrap;html=1;fillColor=#e1d5e7;strokeColor=#9673a6;" vertex="1" parent="WIyWlLk6GJQsqaUBKTNV-1">
          <mxGeometry x="101" y="132.5" width="98" height="65" as="geometry" />
        </mxCell>
        <mxCell id="jqP9k7ERw2RSLgkD4hJS-1" value="vertices" style="ellipse;whiteSpace=wrap;html=1;fillColor=#e1d5e7;strokeColor=#9673a6;" vertex="1" parent="WIyWlLk6GJQsqaUBKTNV-1">
          <mxGeometry x="371" y="130" width="94" height="60" as="geometry" />
        </mxCell>
        <mxCell id="jqP9k7ERw2RSLgkD4hJS-5" value="CoraseMesh" style="text;html=1;align=center;verticalAlign=middle;resizable=0;points=[];autosize=1;strokeColor=none;fillColor=none;" vertex="1" parent="WIyWlLk6GJQsqaUBKTNV-1">
          <mxGeometry x="55" y="92" width="90" height="30" as="geometry" />
        </mxCell>
        <mxCell id="jqP9k7ERw2RSLgkD4hJS-9" value="" style="edgeStyle=orthogonalEdgeStyle;rounded=0;orthogonalLoop=1;jettySize=auto;html=1;" edge="1" parent="WIyWlLk6GJQsqaUBKTNV-1" source="jqP9k7ERw2RSLgkD4hJS-6" target="jqP9k7ERw2RSLgkD4hJS-8">
          <mxGeometry relative="1" as="geometry" />
        </mxCell>
        <mxCell id="jqP9k7ERw2RSLgkD4hJS-6" value="Stencil&lt;br&gt;Table" style="ellipse;whiteSpace=wrap;html=1;fillColor=#ffff88;strokeColor=#36393d;" vertex="1" parent="WIyWlLk6GJQsqaUBKTNV-1">
          <mxGeometry x="93.5" y="233" width="113" height="75" as="geometry" />
        </mxCell>
        <mxCell id="jqP9k7ERw2RSLgkD4hJS-7" value="" style="endArrow=classic;html=1;rounded=0;exitX=0.5;exitY=1;exitDx=0;exitDy=0;entryX=0.5;entryY=0;entryDx=0;entryDy=0;" edge="1" parent="WIyWlLk6GJQsqaUBKTNV-1" source="jqP9k7ERw2RSLgkD4hJS-0" target="jqP9k7ERw2RSLgkD4hJS-6">
          <mxGeometry width="50" height="50" relative="1" as="geometry">
            <mxPoint x="-10" y="250" as="sourcePoint" />
            <mxPoint x="40" y="200" as="targetPoint" />
          </mxGeometry>
        </mxCell>
        <mxCell id="jqP9k7ERw2RSLgkD4hJS-12" value="" style="edgeStyle=orthogonalEdgeStyle;rounded=0;orthogonalLoop=1;jettySize=auto;html=1;" edge="1" parent="WIyWlLk6GJQsqaUBKTNV-1" source="jqP9k7ERw2RSLgkD4hJS-8" target="jqP9k7ERw2RSLgkD4hJS-11">
          <mxGeometry relative="1" as="geometry" />
        </mxCell>
        <mxCell id="jqP9k7ERw2RSLgkD4hJS-8" value="Evaluator" style="rounded=1;whiteSpace=wrap;html=1;fillColor=#cdeb8b;strokeColor=#36393d;" vertex="1" parent="WIyWlLk6GJQsqaUBKTNV-1">
          <mxGeometry x="90" y="384" width="120" height="60" as="geometry" />
        </mxCell>
        <mxCell id="jqP9k7ERw2RSLgkD4hJS-10" value="" style="curved=1;endArrow=classic;html=1;rounded=0;exitX=0.5;exitY=1;exitDx=0;exitDy=0;entryX=0.5;entryY=0;entryDx=0;entryDy=0;" edge="1" parent="WIyWlLk6GJQsqaUBKTNV-1" source="jqP9k7ERw2RSLgkD4hJS-1" target="jqP9k7ERw2RSLgkD4hJS-8">
          <mxGeometry width="50" height="50" relative="1" as="geometry">
            <mxPoint x="390" y="330" as="sourcePoint" />
            <mxPoint x="330" y="390" as="targetPoint" />
            <Array as="points">
              <mxPoint x="423" y="248" />
              <mxPoint x="400" y="303" />
              <mxPoint x="276" y="356" />
            </Array>
          </mxGeometry>
        </mxCell>
        <mxCell id="jqP9k7ERw2RSLgkD4hJS-13" value="" style="edgeStyle=orthogonalEdgeStyle;rounded=0;orthogonalLoop=1;jettySize=auto;html=1;" edge="1" parent="WIyWlLk6GJQsqaUBKTNV-1" source="jqP9k7ERw2RSLgkD4hJS-11" target="WIyWlLk6GJQsqaUBKTNV-10">
          <mxGeometry relative="1" as="geometry" />
        </mxCell>
        <mxCell id="jqP9k7ERw2RSLgkD4hJS-11" value="subdivison&lt;br&gt;&amp;nbsp;patches" style="ellipse;whiteSpace=wrap;html=1;rounded=1;fillColor=#e1d5e7;strokeColor=#9673a6;" vertex="1" parent="WIyWlLk6GJQsqaUBKTNV-1">
          <mxGeometry x="240" y="384" width="120" height="60" as="geometry" />
        </mxCell>
        <mxCell id="jqP9k7ERw2RSLgkD4hJS-16" value="Discard" style="whiteSpace=wrap;html=1;shadow=0;strokeWidth=1;spacing=6;spacingTop=-4;fillColor=#e51400;strokeColor=#B20000;fontColor=#ffffff;" vertex="1" parent="WIyWlLk6GJQsqaUBKTNV-1">
          <mxGeometry x="540" y="384" width="70" height="60" as="geometry" />
        </mxCell>
        <mxCell id="jqP9k7ERw2RSLgkD4hJS-21" value="" style="edgeStyle=orthogonalEdgeStyle;rounded=0;orthogonalLoop=1;jettySize=auto;html=1;" edge="1" parent="WIyWlLk6GJQsqaUBKTNV-1" source="jqP9k7ERw2RSLgkD4hJS-18" target="jqP9k7ERw2RSLgkD4hJS-20">
          <mxGeometry relative="1" as="geometry" />
        </mxCell>
        <mxCell id="jqP9k7ERw2RSLgkD4hJS-18" value="tessellation" style="whiteSpace=wrap;html=1;fillColor=#d5e8d4;strokeColor=#82b366;rounded=1;glass=0;strokeWidth=1;shadow=0;" vertex="1" parent="WIyWlLk6GJQsqaUBKTNV-1">
          <mxGeometry x="199" y="524" width="66" height="60" as="geometry" />
        </mxCell>
        <mxCell id="jqP9k7ERw2RSLgkD4hJS-23" value="" style="edgeStyle=orthogonalEdgeStyle;rounded=0;orthogonalLoop=1;jettySize=auto;html=1;" edge="1" parent="WIyWlLk6GJQsqaUBKTNV-1" source="jqP9k7ERw2RSLgkD4hJS-20" target="jqP9k7ERw2RSLgkD4hJS-22">
          <mxGeometry relative="1" as="geometry" />
        </mxCell>
        <mxCell id="jqP9k7ERw2RSLgkD4hJS-20" value="domain shader" style="whiteSpace=wrap;html=1;fillColor=#d5e8d4;strokeColor=#82b366;rounded=1;glass=0;strokeWidth=1;shadow=0;" vertex="1" parent="WIyWlLk6GJQsqaUBKTNV-1">
          <mxGeometry x="285" y="524" width="80" height="60" as="geometry" />
        </mxCell>
        <mxCell id="jqP9k7ERw2RSLgkD4hJS-30" value="" style="edgeStyle=orthogonalEdgeStyle;rounded=0;orthogonalLoop=1;jettySize=auto;html=1;" edge="1" parent="WIyWlLk6GJQsqaUBKTNV-1" source="jqP9k7ERw2RSLgkD4hJS-22" target="jqP9k7ERw2RSLgkD4hJS-29">
          <mxGeometry relative="1" as="geometry" />
        </mxCell>
        <mxCell id="jqP9k7ERw2RSLgkD4hJS-22" value="pixel shader" style="whiteSpace=wrap;html=1;fillColor=#d5e8d4;strokeColor=#82b366;rounded=1;glass=0;strokeWidth=1;shadow=0;" vertex="1" parent="WIyWlLk6GJQsqaUBKTNV-1">
          <mxGeometry x="395" y="524" width="70" height="60" as="geometry" />
        </mxCell>
        <mxCell id="jqP9k7ERw2RSLgkD4hJS-24" value="" style="curved=1;endArrow=classic;html=1;rounded=0;exitX=0.5;exitY=1;exitDx=0;exitDy=0;entryX=0.5;entryY=0;entryDx=0;entryDy=0;" edge="1" parent="WIyWlLk6GJQsqaUBKTNV-1" source="WIyWlLk6GJQsqaUBKTNV-10" target="WIyWlLk6GJQsqaUBKTNV-11">
          <mxGeometry width="50" height="50" relative="1" as="geometry">
            <mxPoint x="630" y="580" as="sourcePoint" />
            <mxPoint x="680" y="530" as="targetPoint" />
            <Array as="points">
              <mxPoint x="387" y="483" />
              <mxPoint x="331" y="503" />
            </Array>
          </mxGeometry>
        </mxCell>
        <mxCell id="jqP9k7ERw2RSLgkD4hJS-25" value="pass" style="edgeLabel;html=1;align=center;verticalAlign=middle;resizable=0;points=[];" vertex="1" connectable="0" parent="jqP9k7ERw2RSLgkD4hJS-24">
          <mxGeometry x="-0.6738" y="-3" relative="1" as="geometry">
            <mxPoint as="offset" />
          </mxGeometry>
        </mxCell>
        <mxCell id="jqP9k7ERw2RSLgkD4hJS-29" value="refined &lt;br&gt;mesh" style="ellipse;whiteSpace=wrap;html=1;fillColor=#d0cee2;strokeColor=#56517e;rounded=1;glass=0;strokeWidth=1;shadow=0;" vertex="1" parent="WIyWlLk6GJQsqaUBKTNV-1">
          <mxGeometry x="495" y="524" width="75" height="60" as="geometry" />
        </mxCell>
        <mxCell id="jqP9k7ERw2RSLgkD4hJS-31" value="&lt;b&gt;cpu&lt;/b&gt;" style="text;html=1;align=center;verticalAlign=middle;resizable=0;points=[];autosize=1;strokeColor=none;fillColor=none;" vertex="1" parent="WIyWlLk6GJQsqaUBKTNV-1">
          <mxGeometry x="610" y="303" width="40" height="30" as="geometry" />
        </mxCell>
        <mxCell id="jqP9k7ERw2RSLgkD4hJS-32" value="&lt;b&gt;GPU(Compute Shader)&lt;/b&gt;" style="text;html=1;align=center;verticalAlign=middle;resizable=0;points=[];autosize=1;strokeColor=none;fillColor=none;" vertex="1" parent="WIyWlLk6GJQsqaUBKTNV-1">
          <mxGeometry x="510" y="474" width="150" height="30" as="geometry" />
        </mxCell>
        <mxCell id="jqP9k7ERw2RSLgkD4hJS-33" value="&lt;b&gt;GPU (Graphics Pipeline)&lt;/b&gt;" style="text;html=1;align=center;verticalAlign=middle;resizable=0;points=[];autosize=1;strokeColor=none;fillColor=none;" vertex="1" parent="WIyWlLk6GJQsqaUBKTNV-1">
          <mxGeometry x="505" y="604" width="160" height="30" as="geometry" />
        </mxCell>
        <mxCell id="jqP9k7ERw2RSLgkD4hJS-34" value="Topology" style="ellipse;whiteSpace=wrap;html=1;dashed=1;fillColor=#e1d5e7;strokeColor=#9673a6;" vertex="1" parent="WIyWlLk6GJQsqaUBKTNV-1">
          <mxGeometry x="87" y="693" width="120" height="80" as="geometry" />
        </mxCell>
        <mxCell id="jqP9k7ERw2RSLgkD4hJS-35" value="indices" style="ellipse;whiteSpace=wrap;html=1;fillColor=#e1d5e7;strokeColor=#9673a6;" vertex="1" parent="WIyWlLk6GJQsqaUBKTNV-1">
          <mxGeometry x="245" y="130" width="96" height="65" as="geometry" />
        </mxCell>
        <mxCell id="jqP9k7ERw2RSLgkD4hJS-38" value="" style="endArrow=classic;html=1;rounded=0;exitX=0.5;exitY=1;exitDx=0;exitDy=0;entryX=0.5;entryY=0;entryDx=0;entryDy=0;" edge="1" parent="WIyWlLk6GJQsqaUBKTNV-1" source="jqP9k7ERw2RSLgkD4hJS-35" target="jqP9k7ERw2RSLgkD4hJS-6">
          <mxGeometry width="50" height="50" relative="1" as="geometry">
            <mxPoint x="709" y="247" as="sourcePoint" />
            <mxPoint x="759" y="197" as="targetPoint" />
          </mxGeometry>
        </mxCell>
      </root>
    </mxGraphModel>
  </diagram>
</mxfile>
